<svg xmlns="http://www.w3.org/2000/svg"  viewBox="0 0 40 40" width="16px" height="16px"><path fill="#8bb7f0" d="M23.596,2.871v4.444c5.533,1.566,9.589,6.65,9.589,12.684c0,7.282-5.903,13.185-13.185,13.185 S6.815,27.282,6.815,20c0-4.897,2.671-9.168,6.635-11.44l3.05,3.05V2.5H7.39l2.935,2.935C5.614,8.57,2.5,13.916,2.5,20 c0,9.665,7.835,17.5,17.5,17.5S37.5,29.665,37.5,20C37.5,11.568,31.536,4.53,23.596,2.871z"/><path fill="#4e7ab5" d="M20,37.986c-9.918,0-17.987-8.068-17.987-17.986c0-5.826,2.813-11.252,7.555-14.634L6.216,2.014 h10.771v10.771l-3.614-3.613C9.619,11.472,7.302,15.587,7.302,20c0,7.002,5.696,12.698,12.698,12.698S32.698,27.002,32.698,20 c0-5.654-3.797-10.678-9.235-12.216l-0.354-0.101V2.272l0.586,0.122C31.976,4.125,37.987,11.529,37.987,20 C37.987,29.918,29.918,37.986,20,37.986z M8.565,2.986l2.524,2.525L10.594,5.84C5.831,9.011,2.987,14.304,2.987,20 c0,9.381,7.632,17.014,17.013,17.014S37.013,29.381,37.013,20c0-7.811-5.403-14.663-12.931-16.52v3.472 c5.665,1.771,9.589,7.083,9.589,13.048c0,7.538-6.133,13.671-13.672,13.671S6.328,27.538,6.328,20 c0-4.885,2.636-9.43,6.88-11.862l0.323-0.186l2.482,2.482V2.986H8.565z"/></svg>